<svg width="24" height="25" viewBox="0 0 24 25" fill="none" xmlns="http://www.w3.org/2000/svg">
<path d="M12.04 2.41003C6.58005 2.41003 2.13005 6.86003 2.13005 12.32C2.13005 14.07 2.59005 15.77 3.45005 17.27L2.05005 22.41L7.30005 21.03C8.75005 21.82 10.38 22.24 12.04 22.24C17.5 22.24 21.9501 17.79 21.9501 12.33C21.9501 9.68003 20.92 7.19003 19.05 5.32003C18.1331 4.39413 17.0411 3.65999 15.8376 3.16039C14.634 2.66079 13.3431 2.40571 12.04 2.41003ZM12.05 4.08003C14.25 4.08003 16.31 4.94003 17.87 6.50003C18.6354 7.26555 19.2423 8.17454 19.6558 9.17495C20.0694 10.1754 20.2815 11.2475 20.2801 12.33C20.2801 16.87 16.58 20.56 12.04 20.56C10.56 20.56 9.11005 20.17 7.85005 19.41L7.55005 19.24L4.43005 20.06L5.26005 17.02L5.06005 16.7C4.2346 15.3884 3.79772 13.8698 3.80005 12.32C3.81005 7.78003 7.50005 4.08003 12.05 4.08003ZM8.53005 7.74003C8.37005 7.74003 8.10005 7.80003 7.87005 8.05003C7.65005 8.30003 7.00005 8.91003 7.00005 10.12C7.00005 11.34 7.89005 12.51 8.00005 12.68C8.14005 12.85 9.76005 15.35 12.25 16.41C12.84 16.68 13.3 16.83 13.66 16.94C14.25 17.13 14.79 17.1 15.22 17.04C15.7 16.97 16.68 16.44 16.89 15.86C17.1 15.28 17.1 14.79 17.04 14.68C16.97 14.58 16.81 14.52 16.56 14.41C16.31 14.27 15.09 13.67 14.87 13.59C14.64 13.51 14.5 13.47 14.31 13.71C14.15 13.96 13.67 14.52 13.53 14.68C13.38 14.85 13.24 14.87 13 14.75C12.74 14.62 11.94 14.36 11 13.52C10.26 12.86 9.77005 12.05 9.62005 11.8C9.50005 11.56 9.61005 11.41 9.73005 11.3C9.84005 11.19 10 11.01 10.1 10.86C10.23 10.72 10.27 10.61 10.35 10.45C10.43 10.28 10.39 10.14 10.33 10.02C10.27 9.91003 9.77005 8.67003 9.56005 8.18003C9.36005 7.70003 9.16005 7.76003 9.00005 7.75003C8.86005 7.75003 8.70005 7.74003 8.53005 7.74003Z" fill="white"/>
</svg>
