<svg width="24" height="25" viewBox="0 0 24 25" fill="none" xmlns="http://www.w3.org/2000/svg">
<path d="M10.478 21.535C11.4834 21.7021 12.5094 21.7028 13.515 21.537M10.478 21.535C8.31845 21.1745 6.35578 20.0597 4.94091 18.3889C3.52604 16.718 2.74971 14.5995 2.75 12.41C2.75036 10.6454 3.25548 8.91767 4.20575 7.43075C5.15602 5.94382 6.51179 4.75975 8.11307 4.01823C9.71435 3.27671 11.4943 3.0087 13.243 3.24582C14.9916 3.48294 16.6359 4.2153 17.9819 5.35648C19.3279 6.49766 20.3193 8.00003 20.8393 9.68632C21.3593 11.3726 21.3861 13.1725 20.9165 14.8735C20.4469 16.5745 19.5005 18.1057 18.1891 19.2864C16.8776 20.4671 15.2558 21.248 13.515 21.537M10.478 21.535L10.477 16.53H8.58C8.42087 16.53 8.26826 16.4668 8.15574 16.3543C8.04321 16.2418 7.98 16.0892 7.98 15.93V14.092C7.98 13.9329 8.04321 13.7803 8.15574 13.6678C8.26826 13.5552 8.42087 13.492 8.58 13.492H10.477V10.36C10.477 9.56437 10.7931 8.80131 11.3557 8.2387C11.9183 7.67609 12.6814 7.36002 13.477 7.36002H15.287C15.5522 7.36002 15.8066 7.46538 15.9941 7.65292C16.1816 7.84045 16.287 8.09481 16.287 8.36002V9.40002C16.287 9.66524 16.1816 9.91959 15.9941 10.1071C15.8066 10.2947 15.5522 10.4 15.287 10.4H14.515C14.2498 10.4 13.9954 10.5054 13.8079 10.6929C13.6204 10.8805 13.515 11.1348 13.515 11.4V13.492H15.812C15.8991 13.492 15.9851 13.511 16.0642 13.5476C16.1432 13.5842 16.2133 13.6375 16.2696 13.7039C16.326 13.7703 16.3672 13.8482 16.3904 13.9322C16.4136 14.0161 16.4182 14.1041 16.404 14.19L16.154 15.694C16.1152 15.9275 15.9948 16.1397 15.8142 16.2928C15.6337 16.4458 15.4047 16.5299 15.168 16.53H13.515V21.537" stroke="white" stroke-width="1.5" stroke-linecap="round"/>
</svg>
