<svg width="24" height="25" viewBox="0 0 24 25" fill="none" xmlns="http://www.w3.org/2000/svg">
<path d="M12.001 9.41003C11.2054 9.41003 10.4423 9.7261 9.87968 10.2887C9.31707 10.8513 9.001 11.6144 9.001 12.41C9.001 13.2057 9.31707 13.9687 9.87968 14.5314C10.4423 15.094 11.2054 15.41 12.001 15.41C12.7966 15.41 13.5597 15.094 14.1223 14.5314C14.6849 13.9687 15.001 13.2057 15.001 12.41C15.001 11.6144 14.6849 10.8513 14.1223 10.2887C13.5597 9.7261 12.7966 9.41003 12.001 9.41003ZM12.001 7.41003C13.3271 7.41003 14.5989 7.93682 15.5365 8.8745C16.4742 9.81218 17.001 11.084 17.001 12.41C17.001 13.7361 16.4742 15.0079 15.5365 15.9456C14.5989 16.8833 13.3271 17.41 12.001 17.41C10.6749 17.41 9.40315 16.8833 8.46547 15.9456C7.52778 15.0079 7.001 13.7361 7.001 12.41C7.001 11.084 7.52778 9.81218 8.46547 8.8745C9.40315 7.93682 10.6749 7.41003 12.001 7.41003ZM18.501 7.16003C18.501 7.49155 18.3693 7.8095 18.1349 8.04392C17.9005 8.27834 17.5825 8.41003 17.251 8.41003C16.9195 8.41003 16.6015 8.27834 16.3671 8.04392C16.1327 7.8095 16.001 7.49155 16.001 7.16003C16.001 6.82851 16.1327 6.51057 16.3671 6.27615C16.6015 6.04173 16.9195 5.91003 17.251 5.91003C17.5825 5.91003 17.9005 6.04173 18.1349 6.27615C18.3693 6.51057 18.501 6.82851 18.501 7.16003ZM12.001 4.41003C9.527 4.41003 9.123 4.41703 7.972 4.46803C7.188 4.50503 6.662 4.61003 6.174 4.80003C5.76583 4.9504 5.39672 5.19067 5.094 5.50303C4.78127 5.80565 4.54066 6.17477 4.39 6.58303C4.2 7.07303 4.095 7.59803 4.059 8.38103C4.007 9.48503 4 9.87103 4 12.41C4 14.885 4.007 15.288 4.058 16.439C4.095 17.222 4.2 17.749 4.389 18.236C4.559 18.671 4.759 18.984 5.091 19.316C5.428 19.652 5.741 19.853 6.171 20.019C6.665 20.21 7.191 20.316 7.971 20.352C9.075 20.404 9.461 20.41 12 20.41C14.475 20.41 14.878 20.403 16.029 20.352C16.811 20.315 17.337 20.21 17.826 20.021C18.2342 19.8707 18.6033 19.6304 18.906 19.318C19.243 18.982 19.444 18.669 19.61 18.238C19.8 17.746 19.906 17.22 19.942 16.438C19.994 15.335 20 14.948 20 12.41C20 9.93603 19.993 9.53203 19.942 8.38103C19.905 7.59903 19.799 7.07103 19.61 6.58303C19.4596 6.17487 19.2194 5.80576 18.907 5.50303C18.6044 5.19031 18.2353 4.9497 17.827 4.79903C17.337 4.60903 16.811 4.50403 16.029 4.46803C14.926 4.41603 14.54 4.41003 12 4.41003M12 2.41003C14.717 2.41003 15.056 2.42003 16.123 2.47003C17.187 2.52003 17.913 2.68703 18.55 2.93503C19.21 3.18903 19.766 3.53303 20.322 4.08803C20.8307 4.58777 21.2242 5.19251 21.475 5.86003C21.722 6.49703 21.89 7.22303 21.94 8.28803C21.987 9.35403 22 9.69303 22 12.41C22 15.127 21.99 15.466 21.94 16.532C21.89 17.598 21.722 18.322 21.475 18.96C21.2242 19.6276 20.8307 20.2323 20.322 20.732C19.8223 21.2407 19.2175 21.6342 18.55 21.885C17.913 22.132 17.187 22.3 16.123 22.35C15.056 22.397 14.717 22.41 12 22.41C9.283 22.41 8.944 22.4 7.877 22.35C6.813 22.3 6.088 22.132 5.45 21.885C4.78247 21.6342 4.17773 21.2407 3.678 20.732C3.16931 20.2323 2.77582 19.6276 2.525 18.96C2.277 18.323 2.11 17.597 2.06 16.532C2.012 15.466 2 15.127 2 12.41C2 9.69303 2.01 9.35403 2.06 8.28803C2.11 7.22203 2.277 6.49803 2.525 5.86003C2.77582 5.19251 3.16931 4.58777 3.678 4.08803C4.17773 3.57934 4.78247 3.18585 5.45 2.93503C6.087 2.68703 6.812 2.52003 7.877 2.47003C8.945 2.42303 9.284 2.41003 12.001 2.41003" fill="white"/>
</svg>
